<svg xmlns="http://www.w3.org/2000/svg" viewBox="0 0 192 192" width="192" height="192">
  <!-- 배경 원 -->
  <circle cx="96" cy="96" r="90" fill="#1a1a1a" stroke="#444" stroke-width="4"/>
  
  <!-- 햄스터 얼굴 -->
  <circle cx="96" cy="108" r="72" fill="#D4A574" stroke="#B8956A" stroke-width="3"/>
  
  <!-- 햄스터 귀 -->
  <ellipse cx="60" cy="48" rx="18" ry="24" fill="#D4A574" stroke="#B8956A" stroke-width="3"/>
  <ellipse cx="132" cy="48" rx="18" ry="24" fill="#D4A574" stroke="#B8956A" stroke-width="3"/>
  
  <!-- 귀 안쪽 -->
  <ellipse cx="60" cy="48" rx="9" ry="12" fill="#F4C2A1"/>
  <ellipse cx="132" cy="48" rx="9" ry="12" fill="#F4C2A1"/>
  
  <!-- 눈 -->
  <circle cx="72" cy="96" r="9" fill="#2C2C2C"/>
  <circle cx="120" cy="96" r="9" fill="#2C2C2C"/>
  
  <!-- 눈 하이라이트 -->
  <circle cx="74" cy="94" r="3" fill="#FFFFFF"/>
  <circle cx="122" cy="94" r="3" fill="#FFFFFF"/>
  
  <!-- 코 -->
  <ellipse cx="96" cy="114" rx="6" ry="5" fill="#2C2C2C"/>
  
  <!-- 입 -->
  <path d="M 84 126 Q 96 135 108 126" stroke="#2C2C2C" stroke-width="4" fill="none"/>
  
  <!-- 볼 털 -->
  <circle cx="48" cy="120" r="6" fill="#D4A574"/>
  <circle cx="144" cy="120" r="6" fill="#D4A574"/>
  
  <!-- 조직원 느낌의 넥타이 -->
  <rect x="90" y="144" width="12" height="24" fill="#FF6B6B"/>
  <rect x="84" y="156" width="24" height="12" fill="#FF6B6B"/>
  
  <!-- 넥타이 패턴 -->
  <rect x="90" y="150" width="12" height="3" fill="#E55A5A"/>
  <rect x="90" y="156" width="12" height="3" fill="#E55A5A"/>
  <rect x="90" y="162" width="12" height="3" fill="#E55A5A"/>
  
  <!-- 조직원 뱃지 느낌 -->
  <circle cx="96" cy="168" r="8" fill="#4ECDC4" stroke="#45B7D1" stroke-width="2"/>
  <text x="96" y="172" text-anchor="middle" font-family="Arial, sans-serif" font-size="8" font-weight="bold" fill="#FFFFFF">H</text>
</svg>
